<?xml version="1.0" encoding="utf-8"?>
<!-- Generator: Adobe Illustrator 18.0.0, SVG Export Plug-In . SVG Version: 6.00 Build 0)  -->
<!DOCTYPE svg PUBLIC "-//W3C//DTD SVG 1.1//EN" "http://www.w3.org/Graphics/SVG/1.1/DTD/svg11.dtd">
<svg version="1.1" id="Layer_1" xmlns="http://www.w3.org/2000/svg" xmlns:xlink="http://www.w3.org/1999/xlink" x="0px" y="0px"
	 viewBox="0 12.5 32 32" enable-background="new 0 12.5 32 32" xml:space="preserve">
<path d="M22,12.5c-5.5,0-10,4.5-10,10c0,0.6,0.1,1.2,0.2,1.8L0,36.5v6c0,1.1,0.9,2,2,2h2v-2h4v-4h4v-4h4l2.6-2.6
	c1.1,0.4,2.2,0.6,3.4,0.6c5.5,0,10-4.5,10-10S27.5,12.5,22,12.5z M25,22.5c-1.7,0-3-1.3-3-3s1.3-3,3-3s3,1.3,3,3S26.6,22.5,25,22.5z
	"/>
</svg>
